<!-- Copyright (c) Microsoft. All rights reserved. -->
<svg width="16" height="16" viewBox="0 0 16 16" fill="none" xmlns="http://www.w3.org/2000/svg">
<path fill-rule="evenodd" clip-rule="evenodd" d="M10.6797 1.52735C11.5286 1.87891 12.2865 2.38542 12.9531 3.04688L13.6562 2.34375C13.2812 1.96875 12.875 1.63542 12.4375 1.34375C12 1.05208 11.5404 0.805989 11.0586 0.605468C10.5768 0.404948 10.0794 0.253906 9.5664 0.152344C9.05338 0.0507813 8.53125 0 8 0C7.46875 0 6.94661 0.0507813 6.43359 0.152344C5.92057 0.253906 5.42318 0.404947 4.94141 0.605468C4.45964 0.805991 4 1.05208 3.5625 1.34375C3.125 1.63541 2.71875 1.96875 2.34375 2.34375L3.04687 3.04688C3.71354 2.38542 4.47135 1.87891 5.32031 1.52735C6.16927 1.17578 7.0625 1 8 1C8.9375 1 9.83072 1.17578 10.6797 1.52735ZM13 6.99999H3.00001V16H13V6.99999ZM12 15H4.00001V7.99999H12V15ZM7 13H9V14H7V13ZM11.5391 4.46094C11.0651 3.98698 10.5234 3.625 9.91405 3.375C9.30468 3.125 8.66666 3 7.99999 3C7.33333 3 6.6953 3.125 6.08593 3.375C5.47655 3.625 4.93488 3.98698 4.46093 4.46094L3.7578 3.75781C4.32551 3.19011 4.97264 2.75521 5.69921 2.45313C6.42577 2.15104 7.1927 2 7.99999 2C8.80728 2 9.5742 2.15104 10.3008 2.45313C11.0273 2.75521 11.6745 3.19011 12.2422 3.75781L11.5391 4.46094ZM6.46873 4.30078C5.98436 4.5013 5.55207 4.79167 5.17186 5.17188L5.87499 5.875C6.15624 5.59375 6.48045 5.37761 6.84764 5.22656C7.21482 5.07552 7.59894 5 7.99998 5C8.40102 5 8.78514 5.07552 9.15232 5.22656C9.51951 5.37761 9.84373 5.59375 10.125 5.875L10.8281 5.17188C10.4479 4.79167 10.0156 4.5013 9.53123 4.30078C9.04685 4.10026 8.53644 4 7.99998 4C7.46352 4 6.95311 4.10026 6.46873 4.30078Z" fill="white"/>
</svg>
