<!-- Copyright (c) Microsoft. All rights reserved. -->
<svg width="16" height="16" viewBox="0 0 16 16" fill="none" xmlns="http://www.w3.org/2000/svg">
<path fill-rule="evenodd" clip-rule="evenodd" d="M14.0342 5.97551C14.0342 6.60726 13.9377 7.22727 13.7445 7.83552C13.5513 8.44377 13.2641 9.00374 12.883 9.5154C12.9926 9.50496 13.101 9.49713 13.208 9.49191C13.315 9.48668 13.4234 9.48407 13.533 9.48407H14.0342C14.0342 9.74513 14.029 9.99444 14.0186 10.232C14.0081 10.4696 13.9873 10.7019 13.9559 10.929C13.9246 11.1561 13.8776 11.3845 13.815 11.6143C13.7523 11.844 13.6688 12.0816 13.5643 12.327C13.3294 12.8856 13.0214 13.3907 12.6402 13.8424C12.2591 14.294 11.827 14.6804 11.3441 15.0014C10.8611 15.3225 10.3377 15.5692 9.77384 15.7415C9.20997 15.9138 8.62521 16 8.01956 16C7.46613 16 6.93227 15.9282 6.418 15.7846C5.90372 15.641 5.42469 15.4387 4.98089 15.1777C4.5371 14.9166 4.13247 14.6033 3.76699 14.2379C3.40152 13.8724 3.08825 13.4678 2.8272 13.024C2.56615 12.5802 2.36383 12.1011 2.22025 11.5869C2.07667 11.0726 2.00488 10.5387 2.00488 9.9853V9.48408C2.19806 9.48408 2.38994 9.48538 2.58051 9.48799C2.77108 9.4906 2.96295 9.49974 3.15613 9.5154C2.77499 9.00374 2.48783 8.44378 2.29465 7.83552C2.10147 7.22727 2.00488 6.60727 2.00488 5.97552V5.4743C2.38602 5.4743 2.74758 5.48865 3.08956 5.51737C3.43154 5.54608 3.76047 5.60091 4.07634 5.68183C4.39222 5.76276 4.70418 5.87371 5.01222 6.01468C5.32027 6.15565 5.63614 6.33838 5.95985 6.56289C5.89197 6.30184 5.84237 6.03817 5.81105 5.7719C5.77972 5.50562 5.76406 5.23935 5.76406 4.97307C5.76406 4.09071 5.92721 3.25795 6.25353 2.47479C6.57985 1.69163 7.05105 0.98678 7.66714 0.360254L8.01956 0L8.37198 0.360254C8.98807 0.98678 9.45927 1.69163 9.78559 2.47479C10.1119 3.25795 10.2751 4.09071 10.2751 4.97307C10.2751 5.23935 10.2594 5.50562 10.2281 5.7719C10.1967 6.03817 10.1471 6.30184 10.0793 6.56289C10.5909 6.20264 11.1391 5.93114 11.7239 5.7484C12.3087 5.56566 12.9117 5.47429 13.533 5.47429H14.0342L14.0342 5.97551ZM8.01957 1.45667C7.61232 1.95268 7.30167 2.5022 7.08761 3.10523C6.87354 3.70826 6.76651 4.33088 6.76651 4.97307C6.76651 5.61526 6.87354 6.23787 7.08761 6.84091C7.30167 7.44394 7.61232 7.99346 8.01957 8.48946C8.42681 7.99346 8.73746 7.44394 8.95153 6.84091C9.16559 6.23787 9.27262 5.61526 9.27262 4.97307C9.27262 4.33088 9.16559 3.70826 8.95153 3.10523C8.73746 2.5022 8.42681 1.95268 8.01957 1.45667ZM7.01712 9.31178C7.26773 9.82867 7.42437 10.3795 7.48702 10.9642C7.05366 10.9173 6.65687 10.822 6.29661 10.6784C5.93636 10.5348 5.57349 10.3482 5.20802 10.1184C4.9052 9.93048 4.62848 9.70206 4.37787 9.43317C4.12726 9.16429 3.90797 8.8706 3.72002 8.55211C3.53206 8.23363 3.37934 7.89948 3.26187 7.54967C3.14439 7.19985 3.06738 6.85266 3.03083 6.50806C3.61559 6.57072 4.16642 6.72735 4.6833 6.97796C5.20019 7.22857 5.65573 7.55097 6.04992 7.94516C6.44411 8.33935 6.76651 8.79489 7.01712 9.31178ZM3.03083 10.5178C3.09348 11.1026 3.25142 11.6521 3.50464 12.1664C3.75787 12.6807 4.08157 13.1349 4.47577 13.5291C4.86996 13.9233 5.32419 14.247 5.83847 14.5002C6.35274 14.7534 6.90226 14.9114 7.48702 14.974C7.45048 14.6242 7.37346 14.2744 7.25599 13.9246C7.13852 13.5748 6.9858 13.2406 6.79784 12.9222C6.60988 12.6037 6.3919 12.31 6.1439 12.0411C5.8959 11.7722 5.62049 11.5438 5.31767 11.3558C4.94697 11.1261 4.5828 10.9395 4.22516 10.7959C3.86751 10.6523 3.4694 10.5596 3.03083 10.5178ZM7.72588 12.5032C7.61885 12.3126 7.50007 12.1285 7.36954 11.951C7.47396 11.9667 7.581 11.9771 7.69064 11.9824C7.80028 11.9876 7.90992 11.9902 8.01957 11.9902C8.12921 11.9902 8.23885 11.9876 8.34849 11.9824C8.45814 11.9771 8.56517 11.9667 8.66959 11.951C8.53906 12.1285 8.42028 12.3126 8.31325 12.5032C8.20622 12.6937 8.10832 12.8882 8.01957 13.0866C7.93081 12.8882 7.83291 12.6937 7.72588 12.5032ZM8.55211 14.974C9.13687 14.9114 9.68639 14.7534 10.2007 14.5002C10.7149 14.247 11.1692 13.9233 11.5634 13.5291C11.9576 13.1349 12.2813 12.6807 12.5345 12.1664C12.7877 11.6521 12.9457 11.1026 13.0083 10.5178C12.5697 10.5596 12.1716 10.6523 11.814 10.7959C11.4563 10.9394 11.0922 11.1261 10.7215 11.3558C10.4186 11.5438 10.1432 11.7722 9.89524 12.0411C9.64723 12.31 9.42926 12.6037 9.2413 12.9221C9.05334 13.2406 8.90062 13.5748 8.78315 13.9246C8.66567 14.2744 8.58866 14.6242 8.55211 14.974ZM9.17473 10.8585C8.97893 10.9081 8.7714 10.9434 8.55211 10.9642C8.61477 10.3795 8.7714 9.82866 9.02201 9.31178C9.27262 8.79489 9.59502 8.33935 9.98922 7.94516C10.3834 7.55097 10.8376 7.22857 11.3519 6.97796C11.8662 6.72735 12.4183 6.57071 13.0083 6.50806C12.9718 6.85265 12.8947 7.19985 12.7773 7.54966C12.6598 7.89948 12.5071 8.23363 12.3191 8.55211C12.1312 8.87059 11.9119 9.16428 11.6613 9.43317C11.4107 9.70205 11.1339 9.93048 10.8311 10.1184C10.6484 10.2333 10.4669 10.3377 10.2868 10.4317C10.1067 10.5257 9.92525 10.6079 9.74252 10.6784C9.55978 10.7489 9.37052 10.8089 9.17473 10.8585Z" fill="white"/>
</svg>
