<!-- Copyright (c) Microsoft. All rights reserved. -->
<svg width="32" height="32" viewBox="0 0 32 32" fill="none" xmlns="http://www.w3.org/2000/svg">
<path d="M2 15.3137C2 15.3137 17.0688 17.0737 15.7376 27.2641C15.7376 27.2641 5.6608 30.5201 2 15.3137Z" fill="#E3F0FF"/>
<path d="M23.6239 8.23372C22.6271 7.22653 21.4404 6.42699 20.1326 5.88132C18.8248 5.33565 17.4218 5.05469 16.0047 5.05469C14.5876 5.05469 13.1846 5.33565 11.8768 5.88132C10.569 6.42699 9.38237 7.22653 8.38553 8.23372C8.32936 8.2883 8.2847 8.35359 8.25421 8.42573C8.22372 8.49787 8.20801 8.5754 8.20801 8.65372C8.20801 8.73204 8.22372 8.80957 8.25421 8.88171C8.2847 8.95385 8.32936 9.01914 8.38553 9.07372L9.22713 9.92012C9.28112 9.97731 9.34622 10.0229 9.41844 10.054C9.49066 10.0851 9.56848 10.1012 9.64713 10.1012C9.72578 10.1012 9.8036 10.0851 9.87582 10.054C9.94804 10.0229 10.0131 9.97731 10.0671 9.92012C11.6426 8.34551 13.7789 7.46098 16.0063 7.46098C18.2338 7.46098 20.3701 8.34551 21.9455 9.92012C21.9995 9.97731 22.0646 10.0229 22.1368 10.054C22.2091 10.0851 22.2869 10.1012 22.3655 10.1012C22.4442 10.1012 22.522 10.0851 22.5942 10.054C22.6664 10.0229 22.7315 9.97731 22.7855 9.92012L23.6239 9.08012C23.6826 9.02745 23.7291 8.9627 23.7603 8.89034C23.7915 8.81797 23.8067 8.7397 23.8047 8.66092C23.8131 8.58117 23.8009 8.50061 23.7692 8.42694C23.7376 8.35326 23.6875 8.28894 23.6239 8.24012V8.23372Z" fill="#17BDFF"/>
<path d="M16 9.85288C15.2205 9.84838 14.4479 10.0001 13.7279 10.2991C13.0079 10.5981 12.3551 11.0383 11.808 11.5937C11.7509 11.6477 11.7053 11.7128 11.6742 11.785C11.643 11.8572 11.627 11.935 11.627 12.0137C11.627 12.0923 11.643 12.1701 11.6742 12.2424C11.7053 12.3146 11.7509 12.3797 11.808 12.4337L12.648 13.2801C12.702 13.337 12.767 13.3824 12.8391 13.4134C12.9112 13.4443 12.9888 13.4603 13.0672 13.4603C13.1457 13.4603 13.2233 13.4443 13.2954 13.4134C13.3675 13.3824 13.4325 13.337 13.4864 13.2801C13.8167 12.9513 14.2089 12.6913 14.6404 12.5152C15.0719 12.3392 15.534 12.2505 16 12.2545C16.9399 12.273 17.8397 12.6382 18.5264 13.2801C18.5803 13.3363 18.6451 13.381 18.7167 13.4115C18.7883 13.4421 18.8654 13.4578 18.9432 13.4578C19.0211 13.4578 19.0982 13.4421 19.1698 13.4115C19.2414 13.381 19.3061 13.3363 19.36 13.2801L20.2 12.4401C20.2568 12.3859 20.302 12.3207 20.3329 12.2485C20.3638 12.1763 20.3797 12.0986 20.3797 12.0201C20.3797 11.9416 20.3638 11.8639 20.3329 11.7917C20.302 11.7195 20.2568 11.6543 20.2 11.6001C19.6523 11.0429 18.9984 10.6012 18.277 10.3011C17.5556 10.001 16.7814 9.8486 16 9.85288Z" fill="#17BDFF"/>
<path d="M17.2066 15.8513C17.2073 16.0885 17.1376 16.3206 17.0064 16.5182C16.8752 16.7158 16.6884 16.8702 16.4695 16.9617C16.2507 17.0532 16.0097 17.0777 15.7768 17.0323C15.544 16.9869 15.3299 16.8735 15.1615 16.7064C14.9931 16.5394 14.878 16.3262 14.8307 16.0937C14.7834 15.8613 14.8061 15.6201 14.8959 15.4005C14.9856 15.1809 15.1384 14.9929 15.335 14.8601C15.5315 14.7273 15.763 14.6558 16.0002 14.6545C16.1577 14.6541 16.3138 14.6848 16.4595 14.7447C16.6051 14.8046 16.7375 14.8927 16.8491 15.0039C16.9607 15.115 17.0493 15.2471 17.1099 15.3925C17.1704 15.5379 17.2016 15.6938 17.2018 15.8513H17.2066Z" fill="#17BDFF"/>
<path d="M29.9996 15.3137C29.9996 15.3137 14.9308 17.0737 16.262 27.2641C16.262 27.2641 26.3388 30.5201 29.9996 15.3137Z" fill="#E3F0FF"/>
</svg>
