<!-- Copyright (c) Microsoft. All rights reserved. -->

<svg xmlns="http://www.w3.org/2000/svg" viewBox="0 0 30 30"><title>Gateway Black</title><path d="M5.62,15H30V28.12H26.25a1.88,1.88,0,1,1-3.75,0H7.5A1.87,1.87,0,0,1,5.62,30a1.87,1.87,0,0,1-1.87-1.88H0V15H3.75V.94A.87.87,0,0,1,4,.28.87.87,0,0,1,4.69,0a.9.9,0,0,1,.66.28.9.9,0,0,1,.27.66Zm22.5,11.25V16.88H1.88v9.37ZM9.46,23.35,8.33,24.48,3.65,19.79l1.13-1.13Zm5.63,0L14,24.48,9.27,19.79l1.13-1.13Zm8.35,1a2.88,2.88,0,0,1-1.1-.22,2.94,2.94,0,0,1-1.5-1.5,2.88,2.88,0,0,1-.22-1.1,2.92,2.92,0,0,1,.22-1.1,2.77,2.77,0,0,1,.61-.89,2.91,2.91,0,0,1,.89-.6,2.7,2.7,0,0,1,1.1-.22,2.74,2.74,0,0,1,1.1.22A2.81,2.81,0,0,1,26,20.46a2.74,2.74,0,0,1,.22,1.1,2.7,2.7,0,0,1-.22,1.1,2.91,2.91,0,0,1-.6.89,2.77,2.77,0,0,1-.89.61A2.92,2.92,0,0,1,23.44,24.38Zm0-3.76a1,1,0,0,0-.94.94,1,1,0,0,0,.94.94,1,1,0,0,0,.94-.94,1,1,0,0,0-.94-.94ZM17.81,22.5a.94.94,0,0,1-.93-.94.93.93,0,0,1,.27-.66.94.94,0,0,1,.66-.28,1,1,0,0,1,.94.94,1,1,0,0,1-.94.94Z"/></svg>
