<!-- Copyright (c) Microsoft. All rights reserved.-->

<svg width="31" height="32" viewBox="0 0 31 32" fill="none" xmlns="http://www.w3.org/2000/svg">
<path d="M18.9686 13.5426C19.1259 13.5426 19.2046 13.4661 19.362 13.3896C21.4863 11.3244 21.4863 7.88227 19.362 5.81701C17.2377 3.75175 13.6972 3.75175 11.5729 5.81701C9.44866 7.88227 9.44866 11.3244 11.5729 13.3896C11.809 13.6191 12.1237 13.6191 12.281 13.3896C12.5171 13.1602 12.5171 12.8542 12.281 12.7012C10.5501 11.0184 10.5501 8.26473 12.281 6.50543C14.0119 4.82263 16.8443 4.82263 18.6539 6.50543C20.3848 8.18823 20.3848 10.9419 18.6539 12.7012C18.4178 12.9307 18.4178 13.2366 18.6539 13.3896C18.6539 13.4661 18.8112 13.5426 18.9686 13.5426Z" fill="#C2C2C2"/>
<path d="M21.8795 15.9899C21.7221 16.1429 21.5648 16.1429 21.4074 16.1429C21.2501 16.1429 21.0927 16.0664 20.9354 15.9899C20.6993 15.7604 20.6993 15.378 20.9354 15.1485C24.0038 12.1653 24.0038 7.34639 20.9354 4.36324C17.8669 1.38008 12.9103 1.38008 9.84188 4.36324C6.77348 7.34639 6.77348 12.1653 9.84188 15.1485C10.0779 15.378 10.0779 15.7604 9.84188 15.9899C9.60585 16.2194 9.21247 16.2194 8.97644 15.9899C5.43597 12.5478 5.43597 6.88744 8.97644 3.44534C12.5169 0.00324488 18.339 0.00324488 21.8795 3.44534C25.4199 6.88744 25.4199 12.5478 21.8795 15.9899Z" fill="#C2C2C2"/>
<path d="M20.07 26.3933L19.1258 22.7982V22.7217H19.2045L18.7324 20.5035V20.6565L16.2935 11.2481C17.0802 10.8656 17.4736 9.94772 17.2376 9.02982C17.0802 8.49439 16.6082 8.03544 16.0574 7.80597C14.7199 7.34702 13.4611 8.3414 13.4611 9.56526C13.4611 10.2537 13.8545 10.8656 14.4839 11.1716L12.0449 20.6565V20.5035H12.1236L11.5728 22.7217H11.6515V22.7982L10.7074 26.3933C10.6287 26.6993 10.8647 27.0052 11.1794 27.0817C11.2581 27.0817 11.2581 27.0817 11.3368 27.0817C11.5728 27.0817 11.8875 26.9287 11.9662 26.6228L12.753 23.5631C13.6184 23.7926 14.5626 23.8691 15.428 23.8691C16.3721 23.8691 17.2376 23.7926 18.103 23.5631L18.8898 26.6228C18.9685 26.9287 19.2045 27.0817 19.5192 27.0817C19.5979 27.0817 19.5979 27.0817 19.6766 27.0817C19.9913 27.0052 20.1486 26.6993 20.07 26.3933ZM15.428 12.8544L16.6868 17.7498C15.8214 17.8263 15.0346 17.8263 14.1692 17.7498L15.428 12.8544ZM13.8545 18.9737C14.4052 19.0502 14.8773 19.0502 15.428 19.0502C15.9787 19.0502 16.4508 18.9737 17.0016 18.9737L17.3163 20.121C16.0574 20.3505 14.7986 20.3505 13.5398 20.121L13.8545 18.9737ZM12.9103 22.4158L13.2251 21.2684C13.9331 21.4214 14.6412 21.4214 15.428 21.4214C16.1361 21.4214 16.8442 21.3449 17.631 21.2684L17.9457 22.4158C16.2148 22.7982 14.5626 22.7982 12.9103 22.4158Z" fill="#C2C2C2"/>
<path d="M18.7036 24.7104L18.2545 25.3138C23.1043 25.4862 26.4272 26.6067 26.4272 27.5548C26.4272 28.6753 21.4877 29.5372 15.4704 29.5372C9.36328 29.451 4.42371 28.5891 4.42371 27.5548C4.42371 26.6929 7.38745 25.5724 11.9678 25.3138L11.5187 24.7104C5.32182 25.1414 0.831299 26.6067 0.831299 28.2443C0.831299 30.2267 7.38745 31.8644 15.4704 31.8644C23.5533 31.8644 30.1095 30.2267 30.1095 28.2443C30.0197 26.5205 25.1699 25.0552 18.7036 24.7104Z" fill="#C2C2C2"/>
</svg>
