<!-- Copyright (c) Microsoft. All rights reserved.-->

<svg width="18" height="19" viewBox="0 0 18 19" fill="none" xmlns="http://www.w3.org/2000/svg">
<path d="M10.7366 7.50535C10.8298 7.50535 10.8763 7.46007 10.9695 7.41479C12.227 6.19222 12.227 4.15462 10.9695 2.93206C9.71199 1.7095 7.61615 1.7095 6.35865 2.93206C5.10115 4.15462 5.10115 6.19222 6.35865 7.41479C6.49838 7.55063 6.68467 7.55063 6.77782 7.41479C6.91754 7.27895 6.91754 7.09783 6.77782 7.00727C5.75319 6.0111 5.75319 4.38102 6.77782 3.33958C7.80245 2.34342 9.47912 2.34342 10.5503 3.33958C11.575 4.33574 11.575 5.96582 10.5503 7.00727C10.4106 7.14311 10.4106 7.32423 10.5503 7.41479C10.5503 7.46007 10.6435 7.50535 10.7366 7.50535Z" fill="#C2C2C2"/>
<path d="M12.4598 8.95414C12.3666 9.0447 12.2735 9.0447 12.1803 9.0447C12.0872 9.0447 11.994 8.99942 11.9009 8.95414C11.7612 8.8183 11.7612 8.5919 11.9009 8.45606C13.7173 6.69013 13.7173 3.83749 11.9009 2.07156C10.0845 0.30564 7.15034 0.30564 5.33395 2.07156C3.51756 3.83749 3.51756 6.69013 5.33395 8.45606C5.47367 8.5919 5.47367 8.8183 5.33395 8.95414C5.19423 9.08998 4.96135 9.08998 4.82163 8.95414C2.7258 6.91653 2.7258 3.56581 4.82163 1.5282C6.91747 -0.509401 10.364 -0.509401 12.4598 1.5282C14.5556 3.56581 14.5556 6.91653 12.4598 8.95414Z" fill="#C2C2C2"/>
<path d="M11.3885 15.1126L10.8296 12.9844V12.9391H10.8762L10.5967 11.626V11.7166L9.15295 6.14712C9.61869 5.92072 9.85156 5.37736 9.71184 4.834C9.61869 4.51704 9.33924 4.24536 9.01322 4.10952C8.22146 3.83784 7.47628 4.42648 7.47628 5.15096C7.47628 5.55848 7.70915 5.92072 8.08174 6.10184L6.63794 11.7166V11.626H6.68452L6.3585 12.9391H6.40507V12.9844L5.84618 15.1126C5.79961 15.2937 5.93933 15.4748 6.12563 15.5201C6.1722 15.5201 6.1722 15.5201 6.21878 15.5201C6.3585 15.5201 6.5448 15.4295 6.59137 15.2484L7.05711 13.4372C7.56943 13.5731 8.12832 13.6183 8.64063 13.6183C9.19952 13.6183 9.71184 13.5731 10.2242 13.4372L10.6899 15.2484C10.7365 15.4295 10.8762 15.5201 11.0625 15.5201C11.1091 15.5201 11.1091 15.5201 11.1556 15.5201C11.3419 15.4748 11.4351 15.2937 11.3885 15.1126ZM8.64063 7.098L9.38582 9.99593C8.8735 10.0412 8.40776 10.0412 7.89545 9.99593L8.64063 7.098ZM7.70915 10.7204C8.03517 10.7657 8.31461 10.7657 8.64063 10.7657C8.96665 10.7657 9.2461 10.7204 9.57211 10.7204L9.75841 11.3996C9.01322 11.5355 8.26804 11.5355 7.52285 11.3996L7.70915 10.7204ZM7.15026 12.758L7.33656 12.0788C7.75572 12.1694 8.17489 12.1694 8.64063 12.1694C9.0598 12.1694 9.47897 12.1241 9.94471 12.0788L10.131 12.758C9.10637 12.9844 8.12832 12.9844 7.15026 12.758Z" fill="#C2C2C2"/>
<path d="M10.5798 14.1162L10.3139 14.4734C13.1848 14.5754 15.1519 15.2387 15.1519 15.8C15.1519 16.4633 12.2279 16.9735 8.66583 16.9735C5.05064 16.9225 2.12659 16.4122 2.12659 15.8C2.12659 15.2897 3.88102 14.6264 6.59241 14.4734L6.32659 14.1162C2.65823 14.3713 0 15.2387 0 16.2081C0 17.3817 3.88102 18.3511 8.66583 18.3511C13.4507 18.3511 17.3317 17.3817 17.3317 16.2081C17.2785 15.1877 14.4076 14.3203 10.5798 14.1162Z" fill="#C2C2C2"/>
</svg>
