<!-- Copyright (c) Microsoft. All rights reserved. -->
<svg width="16" height="16" viewBox="0 0 16 16" fill="none" xmlns="http://www.w3.org/2000/svg">
<path fill-rule="evenodd" clip-rule="evenodd" d="M8.78125 15C8.8177 15.0521 8.85546 15.1016 8.89453 15.1484C8.93359 15.1953 8.97395 15.2448 9.01562 15.2969V16H0V0H8.71093L13 4.28906V8H12V5H7.99999V0.999999H0.999994V15H8.78125ZM3.00002 3H2.00002V2H3.00002V3ZM4.00002 3H7.00002V2H4.00002V3ZM7.00002 4H4.00002V5H7.00002V4ZM3.00002 4H2.00002V5H3.00002V4ZM11.2891 4H9V1.71094L11.2891 4ZM14.9531 12.0234C14.9844 12.1797 15 12.3385 15 12.5C15 12.6614 14.9844 12.8203 14.9531 12.9765L15.9219 13.375L15.5391 14.3047L14.5703 13.8984C14.388 14.164 14.1641 14.388 13.8984 14.5703L14.3047 15.539L13.375 15.9218L12.9766 14.9531C12.8203 14.9843 12.6614 15 12.5 15C12.3385 15 12.1797 14.9843 12.0234 14.9531L11.625 15.9218L10.6953 15.539L11.1016 14.5703C10.8359 14.388 10.612 14.164 10.4297 13.8984L9.46093 14.3047L9.07811 13.375L10.0469 12.9765C10.0156 12.8203 9.99999 12.6614 9.99999 12.5C9.99999 12.3385 10.0156 12.1797 10.0469 12.0234L9.07811 11.625L9.46093 10.6953L10.4297 11.1015C10.612 10.8359 10.8359 10.6119 11.1016 10.4297L10.6953 9.46091L11.625 9.07809L12.0234 10.0468C12.1797 10.0156 12.3385 9.99997 12.5 9.99997C12.6614 9.99997 12.8203 10.0156 12.9766 10.0468L13.375 9.07809L14.3047 9.46091L13.8984 10.4297C14.164 10.6119 14.388 10.8359 14.5703 11.1015L15.5391 10.6953L15.9219 11.625L14.9531 12.0234ZM13.0859 13.8828C12.9036 13.9609 12.7083 14 12.5 14C12.2917 14 12.0963 13.9609 11.9141 13.8828C11.7318 13.8047 11.5729 13.6979 11.4375 13.5625C11.3021 13.427 11.1953 13.2682 11.1172 13.0859C11.0391 12.9036 11 12.7083 11 12.5C11 12.2916 11.0391 12.0963 11.1172 11.914C11.1953 11.7317 11.3021 11.5729 11.4375 11.4375C11.5729 11.3021 11.7318 11.1953 11.9141 11.1172C12.0963 11.039 12.2917 11 12.5 11C12.7083 11 12.9036 11.039 13.0859 11.1172C13.2682 11.1953 13.4271 11.3021 13.5625 11.4375C13.6979 11.5729 13.8047 11.7317 13.8828 11.914C13.9609 12.0963 14 12.2916 14 12.5C14 12.7083 13.9609 12.9036 13.8828 13.0859C13.8047 13.2682 13.6979 13.427 13.5625 13.5625C13.4271 13.6979 13.2682 13.8047 13.0859 13.8828Z" fill="white"/>
</svg>
