<!-- Copyright (c) Microsoft. All rights reserved. -->

<svg width="16" height="10" viewBox="0 0 16 10" fill="none" xmlns="http://www.w3.org/2000/svg">
<path d="M12.5 3H12V4C12.3958 4 12.7747 4.04557 13.1367 4.13672C13.4987 4.22786 13.8177 4.3737 14.0938 4.57422C14.3698 4.77474 14.5898 5.03255 14.7539 5.34766C14.918 5.66276 15 6.04688 15 6.5C15 6.84375 14.9336 7.16667 14.8008 7.46875C14.668 7.77083 14.4883 8.03516 14.2617 8.26172C14.0352 8.48828 13.7708 8.66797 13.4688 8.80078C13.1667 8.93359 12.8438 9 12.5 9H8.5C8.15625 9 7.83333 8.93359 7.53125 8.80078C7.22917 8.66797 6.96484 8.48828 6.73828 8.26172C6.51172 8.03516 6.33203 7.77083 6.19922 7.46875C6.06641 7.16667 6 6.84375 6 6.5C6 6.04688 6.08203 5.66276 6.24609 5.34766C6.41016 5.03255 6.63021 4.77474 6.90625 4.57422C7.18229 4.3737 7.5013 4.22786 7.86328 4.13672C8.22526 4.04557 8.60417 4 9 4V3H8.5C8.01562 3 7.5612 3.09245 7.13672 3.27734C6.71224 3.46224 6.34245 3.71224 6.02734 4.02734C5.71224 4.34245 5.46224 4.71224 5.27734 5.13672C5.09245 5.5612 5 6.01562 5 6.5C5 6.98438 5.09245 7.4388 5.27734 7.86328C5.46224 8.28776 5.71224 8.65755 6.02734 8.97266C6.34245 9.28776 6.71224 9.53776 7.13672 9.72266C7.5612 9.90755 8.01562 10 8.5 10H12.5C12.9844 10 13.4388 9.90755 13.8633 9.72266C14.2878 9.53776 14.6576 9.28776 14.9727 8.97266C15.2878 8.65755 15.5378 8.28776 15.7227 7.86328C15.9076 7.4388 16 6.98438 16 6.5C16 6.01562 15.9076 5.5612 15.7227 5.13672C15.5378 4.71224 15.2878 4.34245 14.9727 4.02734C14.6576 3.71224 14.2878 3.46224 13.8633 3.27734C13.4388 3.09245 12.9844 3 12.5 3ZM7.5 7H7V6C7.39583 6 7.77474 5.95443 8.13672 5.86328C8.4987 5.77214 8.81771 5.6263 9.09375 5.42578C9.36979 5.22526 9.58984 4.96745 9.75391 4.65234C9.91797 4.33724 10 3.95312 10 3.5C10 3.15625 9.93359 2.83333 9.80078 2.53125C9.66797 2.22917 9.48828 1.96484 9.26172 1.73828C9.03516 1.51172 8.77083 1.33203 8.46875 1.19922C8.16667 1.06641 7.84375 1 7.5 1H3.5C3.15625 1 2.83333 1.06641 2.53125 1.19922C2.22917 1.33203 1.96484 1.51172 1.73828 1.73828C1.51172 1.96484 1.33203 2.22917 1.19922 2.53125C1.06641 2.83333 1 3.15625 1 3.5C1 3.95312 1.08203 4.33724 1.24609 4.65234C1.41016 4.96745 1.63021 5.22526 1.90625 5.42578C2.18229 5.6263 2.5013 5.77214 2.86328 5.86328C3.22526 5.95443 3.60417 6 4 6V7H3.5C3.01562 7 2.5612 6.90755 2.13672 6.72266C1.71224 6.53776 1.34245 6.28776 1.02734 5.97266C0.71224 5.65755 0.46224 5.28776 0.277344 4.86328C0.0924479 4.4388 0 3.98438 0 3.5C0 3.01562 0.0924479 2.5612 0.277344 2.13672C0.46224 1.71224 0.71224 1.34245 1.02734 1.02734C1.34245 0.712239 1.71224 0.462239 2.13672 0.277344C2.5612 0.0924482 3.01562 0 3.5 0H7.5C7.98438 0 8.4388 0.0924482 8.86328 0.277344C9.28776 0.462239 9.65755 0.712239 9.97266 1.02734C10.2878 1.34245 10.5378 1.71224 10.7227 2.13672C10.9076 2.5612 11 3.01562 11 3.5C11 3.98438 10.9076 4.4388 10.7227 4.86328C10.5378 5.28776 10.2878 5.65755 9.97266 5.97266C9.65755 6.28776 9.28776 6.53776 8.86328 6.72266C8.4388 6.90755 7.98438 7 7.5 7Z" fill="#0078D4"/>
</svg>
