<!-- Copyright (c) Microsoft. All rights reserved. -->
<svg width="16" height="16" viewBox="0 0 16 16" fill="none" xmlns="http://www.w3.org/2000/svg">
<path fill-rule="evenodd" clip-rule="evenodd" d="M16 8L13 6.5L16 5L8 1L0 5L3 6.5L0 8L3 9.49999L0 11L8 15L16 11L13 9.49999L16 8ZM8 7.88281L2.2344 5L8 2.11719L13.7656 5L8 7.88281ZM13.7656 11L11.8828 10.0625L8.00003 12L4.11722 10.0625L2.23441 11L8.00001 13.8828L13.7656 11ZM13.7656 8L8.00005 10.8828L2.23441 8L4.11722 7.0625L8.00003 9L11.8828 7.0625L13.7656 8Z" fill="white"/>
</svg>
