<!-- Copyright (c) Microsoft. All rights reserved.-->

<svg width="23" height="38" viewBox="0 0 23 38" fill="none" xmlns="http://www.w3.org/2000/svg">
<path d="M12.1377 32.7459V13.6312C14.4674 13.1411 16.4293 10.9356 16.4293 8.11737C16.4293 5.05412 13.977 2.60352 10.9116 2.60352C7.84613 2.60352 5.39379 5.05412 5.39379 8.11737C5.39379 10.813 7.35566 13.1411 9.93062 13.6312V32.7459" fill="#C2C2C2"/>
<path d="M11.0347 33.725C11.7119 33.725 12.2609 33.1764 12.2609 32.4997C12.2609 31.823 11.7119 31.2744 11.0347 31.2744C10.3575 31.2744 9.80852 31.823 9.80852 32.4997C9.80852 33.1764 10.3575 33.725 11.0347 33.725Z" fill="#C2C2C2"/>
<path d="M13.6105 31.3979L13.2426 31.8881C16.9211 32.0106 19.4961 32.9908 19.4961 33.726C19.4961 34.5837 15.8176 35.3189 11.1581 35.3189C6.4987 35.3189 2.82019 34.5837 2.82019 33.726C2.82019 32.9908 5.14991 32.1331 8.46057 31.8881L8.09272 31.3979C3.43327 31.7655 0 32.9908 0 34.3387C0 35.9316 5.0273 37.2794 11.0355 37.2794C17.0438 37.2794 22.0711 35.9316 22.0711 34.3387C22.1937 32.8683 18.5152 31.7655 13.6105 31.3979Z" fill="#C2C2C2"/>
<path d="M10.6673 17.184C15.4076 17.184 19.2504 13.3439 19.2504 8.6069C19.2504 3.86989 15.4076 0.0297852 10.6673 0.0297852C5.92689 0.0297852 2.08407 3.86989 2.08407 8.6069C2.08407 13.3439 5.92689 17.184 10.6673 17.184Z" fill="#C2C2C2"/>
</svg>
