<!-- Copyright (c) Microsoft. All rights reserved.-->

<svg width="9" height="15" viewBox="0 0 9 15" fill="none" xmlns="http://www.w3.org/2000/svg">
<path d="M4.6961 12.6564V5.26176C5.59737 5.07215 6.35634 4.21892 6.35634 3.12868C6.35634 1.94364 5.40763 0.995605 4.22175 0.995605C3.03586 0.995605 2.08716 1.94364 2.08716 3.12868C2.08716 4.17152 2.84612 5.07215 3.84227 5.26176V12.6564" fill="#C2C2C2"/>
<path d="M4.26903 13.0349C4.53101 13.0349 4.74338 12.8227 4.74338 12.5609C4.74338 12.2991 4.53101 12.0869 4.26903 12.0869C4.00705 12.0869 3.79468 12.2991 3.79468 12.5609C3.79468 12.8227 4.00705 13.0349 4.26903 13.0349Z" fill="#C2C2C2"/>
<path d="M5.26532 12.1348L5.12301 12.3244C6.54607 12.3718 7.54222 12.751 7.54222 13.0354C7.54222 13.3672 6.11916 13.6516 4.31661 13.6516C2.51407 13.6516 1.09101 13.3672 1.09101 13.0354C1.09101 12.751 1.99228 12.4192 3.27304 12.3244L3.13073 12.1348C1.32819 12.277 0 12.751 0 13.2724C0 13.8886 1.94485 14.41 4.26918 14.41C6.59351 14.41 8.53836 13.8886 8.53836 13.2724C8.58579 12.7036 7.16273 12.277 5.26532 12.1348Z" fill="#C2C2C2"/>
<path d="M4.12687 6.63624C5.96072 6.63624 7.44734 5.15067 7.44734 3.31812C7.44734 1.48557 5.96072 0 4.12687 0C2.29302 0 0.806396 1.48557 0.806396 3.31812C0.806396 5.15067 2.29302 6.63624 4.12687 6.63624Z" fill="#C2C2C2"/>
<path d="M4.98083 3.27122C5.55718 3.27122 6.02441 2.80433 6.02441 2.22839C6.02441 1.65244 5.55718 1.18555 4.98083 1.18555C4.40448 1.18555 3.93726 1.65244 3.93726 2.22839C3.93726 2.80433 4.40448 3.27122 4.98083 3.27122Z" fill="white"/>
</svg>
