 <!-- Copyright (c) Microsoft. All rights reserved. -->

<svg width="15" height="15" viewBox="0 0 15 15" fill="none" xmlns="http://www.w3.org/2000/svg">
<path d="M7.5 15C11.6421 15 15 11.6421 15 7.5C15 3.35786 11.6421 0 7.5 0C3.35786 0 0 3.35786 0 7.5C0 11.6421 3.35786 15 7.5 15Z" fill="#5DB300"/>
<path d="M3.75 7.96875L3.46875 7.68751C3.375 7.59376 3.375 7.49999 3.46875 7.40624L4.21875 6.65626L4.31251 6.5625C4.40626 6.5625 4.40625 6.56251 4.40625 6.65626L6.5625 9.00001L10.3125 4.21875C10.3125 4.125 10.4062 4.12499 10.5 4.12499H10.5938L11.4375 4.78126L11.5313 4.87501C11.5313 4.96876 11.5313 4.96874 11.5313 4.96874L6.75 11.0625L3.75 7.96875Z" fill="white"/>
</svg>
