<!-- Copyright (c) Microsoft. All rights reserved. -->

<svg width="13" height="12" viewBox="0 0 13 12" fill="none" xmlns="http://www.w3.org/2000/svg">
<path d="M6.75061 0C7.30139 0 7.83264 0.0722656 8.34436 0.216797C8.85608 0.357422 9.33264 0.558594 9.77405 0.820312C10.2194 1.08203 10.6237 1.39648 10.9869 1.76367C11.3541 2.12695 11.6686 2.53125 11.9303 2.97656C12.192 3.41797 12.3932 3.89453 12.5338 4.40625C12.6783 4.91797 12.7506 5.44922 12.7506 6C12.7506 6.55078 12.6783 7.08203 12.5338 7.59375C12.3932 8.10547 12.192 8.58398 11.9303 9.0293C11.6686 9.4707 11.3541 9.875 10.9869 10.2422C10.6237 10.6055 10.2194 10.918 9.77405 11.1797C9.33264 11.4414 8.85608 11.6445 8.34436 11.7891C7.83264 11.9297 7.30139 12 6.75061 12C6.19983 12 5.66858 11.9297 5.15686 11.7891C4.64514 11.6445 4.16663 11.4414 3.72131 11.1797C3.27991 10.918 2.87561 10.6055 2.50842 10.2422C2.14514 9.875 1.83264 9.4707 1.57092 9.0293C1.3092 8.58398 1.10608 8.10547 0.961548 7.59375C0.820923 7.08203 0.75061 6.55078 0.75061 6C0.75061 5.44922 0.820923 4.91797 0.961548 4.40625C1.10608 3.89453 1.3092 3.41797 1.57092 2.97656C1.83264 2.53125 2.14514 2.12695 2.50842 1.76367C2.87561 1.39648 3.27991 1.08203 3.72131 0.820312C4.16663 0.558594 4.64514 0.357422 5.15686 0.216797C5.66858 0.0722656 6.19983 0 6.75061 0ZM7.41272 6L9.41663 3.99609L8.75452 3.33398L6.75061 5.33789L4.7467 3.33398L4.08459 3.99609L6.0885 6L4.08459 8.00391L4.7467 8.66602L6.75061 6.66211L8.75452 8.66602L9.41663 8.00391L7.41272 6Z" fill="#CD4A45"/>
</svg>
