<!-- Copyright (c) Microsoft. All rights reserved. -->
<svg width="16" height="16" viewBox="0 0 16 16" fill="none" xmlns="http://www.w3.org/2000/svg">
<path fill-rule="evenodd" clip-rule="evenodd" d="M16 3V2H9.99999V1.5C9.99999 1.29167 9.96093 1.09635 9.8828 0.914062C9.80468 0.731771 9.69791 0.572916 9.56249 0.4375C9.42708 0.302084 9.26822 0.195313 9.08593 0.117188C8.90364 0.0390625 8.70833 0 8.49999 0C8.29166 0 8.09635 0.0390624 7.91406 0.117188C7.73177 0.195313 7.57291 0.302084 7.4375 0.4375C7.30208 0.572917 7.19531 0.731771 7.11718 0.914062C7.03906 1.09635 7 1.29166 7 1.5V2H0V3H7V3.5C7 3.70833 7.03906 3.90364 7.11718 4.08593C7.19531 4.26822 7.30208 4.42708 7.4375 4.56249C7.57291 4.69791 7.73177 4.80468 7.91406 4.88281C8.09635 4.96093 8.29166 4.99999 8.49999 4.99999C8.70833 4.99999 8.90364 4.96093 9.08593 4.88281C9.26822 4.80468 9.42708 4.69791 9.56249 4.56249C9.69791 4.42708 9.80468 4.26822 9.8828 4.08593C9.96093 3.90364 9.99999 3.70833 9.99999 3.5V3H16ZM13.0859 10.1172C12.9036 10.0391 12.7083 9.99999 12.5 9.99999C12.2917 9.99999 12.0963 10.0391 11.9141 10.1172C11.7318 10.1953 11.5729 10.3021 11.4375 10.4375C11.3021 10.5729 11.1953 10.7318 11.1172 10.9141C11.0391 11.0963 11 11.2917 11 11.5V12H0V13H11V13.5C11 13.7083 11.0391 13.9036 11.1172 14.0859C11.1953 14.2682 11.3021 14.4271 11.4375 14.5625C11.5729 14.6979 11.7318 14.8047 11.9141 14.8828C12.0963 14.9609 12.2917 15 12.5 15C12.7083 15 12.9036 14.9609 13.0859 14.8828C13.2682 14.8047 13.4271 14.6979 13.5625 14.5625C13.6979 14.4271 13.8047 14.2682 13.8828 14.0859C13.9609 13.9036 14 13.7083 14 13.5V13H16V12H14V11.5C14 11.2917 13.9609 11.0963 13.8828 10.9141C13.8047 10.7318 13.6979 10.5729 13.5625 10.4375C13.4271 10.3021 13.2682 10.1953 13.0859 10.1172ZM3.5 5C3.70833 5 3.90364 5.03906 4.08593 5.11718C4.26822 5.19531 4.42708 5.30208 4.56249 5.4375C4.69791 5.57291 4.80468 5.73177 4.88281 5.91406C4.96093 6.09635 4.99999 6.29166 4.99999 6.49999V6.99999H16V7.99999H4.99999V8.49999C4.99999 8.70833 4.96093 8.90364 4.88281 9.08593C4.80468 9.26822 4.69791 9.42707 4.56249 9.56249C4.42708 9.69791 4.26822 9.80468 4.08593 9.8828C3.90364 9.96093 3.70833 9.99999 3.5 9.99999C3.29166 9.99999 3.09635 9.96093 2.91406 9.8828C2.73177 9.80468 2.57292 9.69791 2.4375 9.56249C2.30208 9.42707 2.19531 9.26822 2.11719 9.08593C2.03906 8.90364 2 8.70832 2 8.49999V7.99999H0V6.99999H2V6.49999C2 6.29166 2.03906 6.09635 2.11719 5.91406C2.19531 5.73177 2.30208 5.57291 2.4375 5.4375C2.57292 5.30208 2.73177 5.19531 2.91406 5.11718C3.09635 5.03906 3.29166 5 3.5 5ZM3.85156 6.14843C3.95052 6.24739 4 6.36458 4 6.49999V8.49999C4 8.63541 3.95052 8.7526 3.85156 8.85156C3.7526 8.95051 3.63541 8.99999 3.5 8.99999C3.36458 8.99999 3.24739 8.95051 3.14843 8.85156C3.04948 8.7526 3 8.63541 3 8.49999V6.49999C3 6.36458 3.04948 6.24739 3.14843 6.14843C3.24739 6.04947 3.36458 6 3.5 6C3.63541 6 3.7526 6.04947 3.85156 6.14843ZM8.99999 1.5C8.99999 1.36458 8.95051 1.24739 8.85156 1.14844C8.7526 1.04948 8.63541 0.999998 8.49999 0.999998C8.36458 0.999998 8.24739 1.04948 8.14843 1.14844C8.04947 1.24739 7.99999 1.36458 7.99999 1.5V3.5C7.99999 3.63541 8.04947 3.7526 8.14843 3.85156C8.24739 3.95052 8.36458 4 8.49999 4C8.63541 4 8.7526 3.95052 8.85156 3.85156C8.95051 3.7526 8.99999 3.63541 8.99999 3.5V1.5ZM12.8516 11.1484C12.9505 11.2474 13 11.3646 13 11.5V13.5C13 13.6354 12.9505 13.7526 12.8516 13.8516C12.7526 13.9505 12.6354 14 12.5 14C12.3646 14 12.2474 13.9505 12.1484 13.8516C12.0495 13.7526 12 13.6354 12 13.5V11.5C12 11.3646 12.0495 11.2474 12.1484 11.1484C12.2474 11.0495 12.3646 11 12.5 11C12.6354 11 12.7526 11.0495 12.8516 11.1484Z" fill="white"/>
</svg>
