<!-- Copyright (c) Microsoft. All rights reserved. -->

<svg xmlns="http://www.w3.org/2000/svg" viewBox="0 0 30 30"><title>Sensor Hub Black</title><path d="M5.62,30V13.12H24.38V30ZM7.5,15V28.12h15V15Zm5.62,11.25V24.38h3.76v1.87ZM25.61,4.39,24.29,5.71A13.11,13.11,0,0,0,20,2.86a12.94,12.94,0,0,0-5-1,12.94,12.94,0,0,0-5,1A13.11,13.11,0,0,0,5.71,5.71L4.39,4.39A15.72,15.72,0,0,1,6.68,2.52,15.12,15.12,0,0,1,12.06.29a15,15,0,0,1,5.88,0,15.12,15.12,0,0,1,5.38,2.23A15.72,15.72,0,0,1,25.61,4.39ZM23,7.05,21.64,8.36a9.41,9.41,0,0,0-13.28,0L7.05,7.05a11.11,11.11,0,0,1,8-3.3,11.11,11.11,0,0,1,8,3.3ZM11,11,9.7,9.7a7.35,7.35,0,0,1,2.43-1.64,7.63,7.63,0,0,1,5.74,0A7.35,7.35,0,0,1,20.3,9.7L19,11A5.35,5.35,0,0,0,17.16,9.8a5.76,5.76,0,0,0-4.32,0A5.35,5.35,0,0,0,11,11Z"/></svg>
