<!-- Copyright (c) Microsoft. All rights reserved. -->
<svg width="16" height="16" viewBox="0 0 16 16" fill="none" xmlns="http://www.w3.org/2000/svg">
<g clip-path="url(#clip0)">
<path d="M10.2593 -1.19209e-07L14.8796 8C15.1142 8.40741 15.2917 8.83796 15.412 9.29167C15.5324 9.74537 15.5926 10.2037 15.5926 10.6667C15.5926 11.4012 15.4522 12.0926 15.1713 12.7407C14.8904 13.3889 14.5093 13.9537 14.0278 14.4352C13.5463 14.9167 12.9815 15.2978 12.3333 15.5787C11.6852 15.8596 10.9938 16 10.2593 16C9.52469 16 8.83333 15.8596 8.18519 15.5787C7.53704 15.2978 6.97222 14.9167 6.49074 14.4352C6.00926 13.9537 5.62809 13.3889 5.34722 12.7407C5.06636 12.0926 4.92593 11.4012 4.92593 10.6667C4.92593 10.2037 4.98611 9.74537 5.10648 9.29167C5.22685 8.83796 5.40432 8.40741 5.63889 8L10.2593 -1.19209e-07ZM10.2593 14.8148C10.8333 14.8148 11.3719 14.7052 11.875 14.4861C12.3781 14.267 12.8164 13.9707 13.1898 13.5972C13.5633 13.2238 13.8596 12.7855 14.0787 12.2824C14.2978 11.7793 14.4074 11.2407 14.4074 10.6667C14.4074 10.3025 14.3596 9.94444 14.2639 9.59259C14.1682 9.24074 14.0309 8.90741 13.8519 8.59259L10.2593 2.37037L6.66667 8.59259C6.48765 8.90741 6.35031 9.24074 6.25463 9.59259C6.15895 9.94444 6.11111 10.3025 6.11111 10.6667C6.11111 11.2407 6.22068 11.7793 6.43981 12.2824C6.65895 12.7855 6.95525 13.2238 7.3287 13.5972C7.70216 13.9707 8.14043 14.267 8.64352 14.4861C9.14661 14.7052 9.68519 14.8148 10.2593 14.8148ZM-1 1.77778V0.592592H2.55556V16H-1V14.8148H1.37037V12.4444H0.185185V11.2593H1.37037V8.88889H-1V7.7037H1.37037V5.33333H0.185185V4.14815H1.37037V1.77778H-1Z" fill="white"/>
</g>
<defs>
<clipPath id="clip0">
<rect width="16" height="16" fill="white"/>
</clipPath>
</defs>
</svg>
