<!-- Copyright (c) Microsoft. All rights reserved. -->

<svg width="13" height="12" viewBox="0 0 13 12" fill="none" xmlns="http://www.w3.org/2000/svg">
<path d="M6.00242 0C6.5532 0 7.08445 0.0722656 7.59617 0.216797C8.10789 0.357422 8.58445 0.558594 9.02586 0.820312C9.47117 1.08203 9.87547 1.39648 10.2387 1.76367C10.6059 2.12695 10.9204 2.53125 11.1821 2.97656C11.4438 3.41797 11.645 3.89453 11.7856 4.40625C11.9302 4.91797 12.0024 5.44922 12.0024 6C12.0024 6.55078 11.9302 7.08203 11.7856 7.59375C11.645 8.10547 11.4438 8.58398 11.1821 9.0293C10.9204 9.4707 10.6059 9.875 10.2387 10.2422C9.87547 10.6055 9.47117 10.918 9.02586 11.1797C8.58445 11.4414 8.10789 11.6445 7.59617 11.7891C7.08445 11.9297 6.5532 12 6.00242 12C5.45164 12 4.92039 11.9297 4.40867 11.7891C3.89695 11.6445 3.41844 11.4414 2.97312 11.1797C2.53172 10.918 2.12742 10.6055 1.76023 10.2422C1.39695 9.875 1.08445 9.4707 0.822733 9.0293C0.561014 8.58398 0.357889 8.10547 0.213358 7.59375C0.0727329 7.08203 0.00242043 6.55078 0.00242043 6C0.00242043 5.44922 0.0727329 4.91797 0.213358 4.40625C0.357889 3.89453 0.561014 3.41797 0.822733 2.97656C1.08445 2.53125 1.39695 2.12695 1.76023 1.76367C2.12742 1.39648 2.53172 1.08203 2.97312 0.820312C3.41844 0.558594 3.89695 0.357422 4.40867 0.216797C4.92039 0.0722656 5.45164 0 6.00242 0ZM9.00242 6H6.00242V2.25H5.25242V6.75H9.00242V6Z" fill="#FFB900"/>
</svg>
